<svg xmlns="http://www.w3.org/2000/svg" viewBox="0 0 238.83 242.93"><g id="Layer_2" data-name="Layer 2"><g id="Capa_1" data-name="Capa 1"><path d="M21.51,242.74c14.33-4.66,27.93-11.82,41.54-17.9,1.79-.72,1.79-3.58.71-4.66C57.32,214.1,50.87,207.29,43,203.36V203c-3.23-43.68,34-85.93,61.22-116,31.15-34.73,69.1-66.23,114.56-78.77a146.23,146.23,0,0,1,17.9-1.43c2.87,0,2.87-3.94,0-4.29h-3.22A2.55,2.55,0,0,0,230.6,0c-3.94.36-7.88,1.43-11.82,2.15-97,2.86-190.46,99.53-196.55,194-5.73-3.22-11.81-6.08-17.54-9.66-2.51-1.79-5,1.07-4.66,3.58,2.51,17.9,11.1,34,17.55,50.48A2.94,2.94,0,0,0,21.51,242.74Zm-14.32-48c4.66,2.15,9.31,3.58,14,6.09a2.64,2.64,0,0,0,3.58-1.43,2.28,2.28,0,0,0,2.15-1.79c14.32-85.57,72.67-155,151.8-180.8-31.15,16.82-58.36,42.6-81.27,68C80.59,103.47,65.55,123.16,53,144.64c-9.67,16.83-18.62,38-12.53,57.28h0c-2.86-1.07-4.3,3.23-2.15,4.66,6.09,4.65,11.82,9.31,17.19,14.32-11.1,5-22.2,10.38-33.66,14.32C16.86,222,10.42,208.73,7.19,194.76Z"/></g></g></svg>